<svg width="522" height="545" viewBox="0 0 522 545" fill="none" xmlns="http://www.w3.org/2000/svg">
<path d="M471.774 264.291C471.774 147.07 376.687 52.0448 259.39 52.0448C142.094 52.0448 47.0068 147.07 47.0068 264.291C47.0068 381.511 142.094 476.536 259.39 476.536C376.687 476.536 471.774 381.511 471.774 264.291Z" fill="#46A0D8" fill-opacity="0.2"/>
<g filter="url(#filter0_f_22_191)">
<circle cx="260.865" cy="260.53" r="210.171" fill="#46A0D8" fill-opacity="0.2"/>
</g>
<mask id="mask0_22_191" style="mask-type:luminance" maskUnits="userSpaceOnUse" x="19" y="24" width="500" height="521">
<path d="M41.7273 321.482C41.7273 444.703 143.481 544.593 269 544.593C394.519 544.593 496.273 444.703 496.273 321.482H519V24H19V321.482H41.7273Z" fill="white"/>
</mask>
<g mask="url(#mask0_22_191)">
<path d="M314.454 359.803V393.993H322.03C397.342 393.993 458.394 453.927 458.394 527.86V544.593H79.606V527.86C79.606 453.927 140.658 393.993 215.97 393.993H223.545V359.803C190.899 344.578 167.432 313.463 163.517 276.639C152.485 275.108 144 265.801 144 254.548V228.519C144 217.464 152.19 208.286 162.939 206.516V195.052C162.939 137.549 210.424 90.9333 269 90.9333C327.576 90.9333 375.06 137.549 375.06 195.052V206.516C385.809 208.286 394 217.464 394 228.519V254.548C394 265.801 385.514 275.108 374.483 276.639C370.568 313.463 347.101 344.578 314.454 359.803Z" fill="#D0C6AC"/>
<mask id="mask1_22_191" style="mask-type:luminance" maskUnits="userSpaceOnUse" x="79" y="90" width="380" height="455">
<path d="M314.454 359.803V393.993H322.03C397.342 393.993 458.394 453.927 458.394 527.86V544.593H79.606V527.86C79.606 453.927 140.658 393.993 215.97 393.993H223.545V359.803C190.899 344.578 167.432 313.463 163.517 276.639C152.485 275.108 144 265.801 144 254.548V228.519C144 217.464 152.19 208.286 162.939 206.516V195.052C162.939 137.549 210.424 90.9333 269 90.9333C327.576 90.9333 375.06 137.549 375.06 195.052V206.516C385.809 208.286 394 217.464 394 228.519V254.548C394 265.801 385.514 275.108 374.483 276.639C370.568 313.463 347.101 344.578 314.454 359.803Z" fill="white"/>
</mask>
<g mask="url(#mask1_22_191)">
<path d="M579.606 90.9333H79.606V611.526H579.606V90.9333Z" fill="#E7AD79"/>
</g>
<mask id="mask2_22_191" style="mask-type:luminance" maskUnits="userSpaceOnUse" x="79" y="90" width="380" height="455">
<path d="M314.454 359.803V393.993H322.03C397.342 393.993 458.394 453.927 458.394 527.86V544.593H79.606V527.86C79.606 453.927 140.658 393.993 215.97 393.993H223.545V359.803C190.899 344.578 167.432 313.463 163.517 276.639C152.485 275.108 144 265.801 144 254.548V228.519C144 217.464 152.19 208.286 162.939 206.516V195.052C162.939 137.549 210.424 90.9333 269 90.9333C327.576 90.9333 375.06 137.549 375.06 195.052V206.516C385.809 208.286 394 217.464 394 228.519V254.548C394 265.801 385.514 275.108 374.483 276.639C370.568 313.463 347.101 344.578 314.454 359.803Z" fill="white"/>
</mask>
<g mask="url(#mask2_22_191)">
<path fill-rule="evenodd" clip-rule="evenodd" d="M375.06 237.815V280.578C375.06 338.081 327.575 384.697 269 384.697C210.424 384.697 162.939 338.081 162.939 280.578V237.815V265.704C162.939 323.207 210.424 369.822 269 369.822C327.575 369.822 375.06 323.207 375.06 265.704V237.815Z" fill="black" fill-opacity="0.1"/>
</g>
<path fill-rule="evenodd" clip-rule="evenodd" d="M223.545 364.377C189.608 368.105 163.469 378.286 162.947 404.488C113.974 424.797 79.606 472.388 79.606 527.859V544.593H458.394V527.859C458.394 472.388 424.026 424.797 375.053 404.488C374.531 378.286 348.391 368.105 314.454 364.377V399.571C314.454 424.215 294.104 444.193 269 444.193C243.896 444.193 223.545 424.215 223.545 399.571V364.377Z" fill="#B7C1DB"/>
<mask id="mask3_22_191" style="mask-type:luminance" maskUnits="userSpaceOnUse" x="79" y="364" width="380" height="181">
<path fill-rule="evenodd" clip-rule="evenodd" d="M223.545 364.377C189.608 368.105 163.469 378.286 162.947 404.488C113.974 424.797 79.606 472.388 79.606 527.859V544.593H458.394V527.859C458.394 472.388 424.026 424.797 375.053 404.488C374.531 378.286 348.391 368.105 314.454 364.377V399.571C314.454 424.215 294.104 444.193 269 444.193C243.896 444.193 223.545 424.215 223.545 399.571V364.377Z" fill="white"/>
</mask>
<g mask="url(#mask3_22_191)">
<path d="M519 340.074H19V544.593H519V340.074Z" fill="#3C4F5C"/>
</g>
<mask id="mask4_22_191" style="mask-type:luminance" maskUnits="userSpaceOnUse" x="79" y="364" width="380" height="181">
<path fill-rule="evenodd" clip-rule="evenodd" d="M223.545 364.377C189.608 368.105 163.469 378.286 162.947 404.488C113.974 424.797 79.606 472.388 79.606 527.859V544.593H458.394V527.859C458.394 472.388 424.026 424.797 375.053 404.488C374.531 378.286 348.391 368.105 314.454 364.377V399.571C314.454 424.215 294.104 444.193 269 444.193C243.896 444.193 223.545 424.215 223.545 399.571V364.377Z" fill="white"/>
</mask>
<g mask="url(#mask4_22_191)">
<path fill-rule="evenodd" clip-rule="evenodd" d="M212.181 454.863V544.593H198.924V448.191C203.098 450.626 207.535 452.859 212.181 454.863ZM339.075 448.191V523.212C339.075 526.806 336.108 529.719 332.447 529.719C328.786 529.719 325.818 526.806 325.818 523.212V454.863C330.464 452.859 334.902 450.626 339.075 448.191Z" fill="#F4F4F4"/>
</g>
<mask id="mask5_22_191" style="mask-type:luminance" maskUnits="userSpaceOnUse" x="79" y="364" width="380" height="181">
<path fill-rule="evenodd" clip-rule="evenodd" d="M223.545 364.377C189.608 368.105 163.469 378.286 162.947 404.488C113.974 424.797 79.606 472.388 79.606 527.859V544.593H458.394V527.859C458.394 472.388 424.026 424.797 375.053 404.488C374.531 378.286 348.391 368.105 314.454 364.377V399.571C314.454 424.215 294.104 444.193 269 444.193C243.896 444.193 223.545 424.215 223.545 399.571V364.377Z" fill="white"/>
</mask>
<g mask="url(#mask5_22_191)">
<path fill-rule="evenodd" clip-rule="evenodd" d="M191.273 363.732C162.767 369.025 143.053 379.57 143.053 400.143C143.053 436.793 205.624 466.504 269 466.504C332.375 466.504 394.947 436.793 394.947 400.143C394.947 379.57 375.232 369.025 346.727 363.732C363.933 369.961 375.06 380.432 375.06 397.854C375.06 435.769 322.369 466.504 269 466.504C215.631 466.504 162.939 435.769 162.939 397.854C162.939 380.432 174.066 369.961 191.273 363.732Z" fill="black" fill-opacity="0.16"/>
</g>
<path d="M242.485 302.889C242.485 312.877 254.148 319.623 269 319.623C283.852 319.623 295.515 312.877 295.515 302.889C295.515 300.835 293.716 299.171 291.727 299.171C289.279 299.171 288.186 300.854 287.939 302.889C285.586 308.351 279.764 311.658 269 312.185C258.236 311.658 252.414 308.351 250.061 302.889C249.814 300.854 248.721 299.171 246.273 299.171C244.284 299.171 242.485 300.835 242.485 302.889Z" fill="black" fill-opacity="0.6"/>
<path fill-rule="evenodd" clip-rule="evenodd" d="M246.273 265.704C246.273 273.919 256.448 280.578 269 280.578C281.552 280.578 291.727 273.919 291.727 265.704" fill="black" fill-opacity="0.16"/>
<path fill-rule="evenodd" clip-rule="evenodd" d="M193.546 233.069C197.043 226.006 204.917 221.082 214.071 221.082C223.192 221.082 231.044 225.971 234.559 232.994C235.603 235.08 234.117 236.788 232.618 235.523C227.976 231.605 221.384 229.158 214.071 229.158C206.987 229.158 200.579 231.454 195.965 235.159C194.278 236.514 192.523 235.135 193.546 233.069Z" fill="black" fill-opacity="0.6"/>
<path fill-rule="evenodd" clip-rule="evenodd" d="M303.394 233.069C306.891 226.006 314.766 221.082 323.92 221.082C333.041 221.082 340.892 225.971 344.408 232.994C345.452 235.08 343.966 236.788 342.467 235.523C337.825 231.605 331.232 229.158 323.92 229.158C316.836 229.158 310.427 231.454 305.813 235.159C304.126 236.514 302.371 235.135 303.394 233.069Z" fill="black" fill-opacity="0.6"/>
<path fill-rule="evenodd" clip-rule="evenodd" d="M213.219 187.887C202.22 188.387 184.438 196.235 184.895 207.122C184.91 207.479 185.443 207.635 185.704 207.361C190.922 201.858 227.97 196.294 241.018 199.238C242.213 199.508 243.12 198.351 242.364 197.516C235.883 190.362 223.072 187.43 213.219 187.887Z" fill="black" fill-opacity="0.6"/>
<path fill-rule="evenodd" clip-rule="evenodd" d="M326.675 187.887C337.674 188.387 355.456 196.235 354.999 207.122C354.984 207.479 354.451 207.635 354.19 207.361C348.972 201.858 311.924 196.294 298.876 199.238C297.681 199.508 296.774 198.351 297.53 197.516C304.011 190.362 316.822 187.43 326.675 187.887Z" fill="black" fill-opacity="0.6"/>
<mask id="mask6_22_191" style="mask-type:luminance" maskUnits="userSpaceOnUse" x="19" y="24" width="500" height="521">
<path d="M519 24H19V544.593H519V24Z" fill="white"/>
</mask>
<g mask="url(#mask6_22_191)">
<path fill-rule="evenodd" clip-rule="evenodd" d="M333.979 89.0855C295.745 67.3328 257.881 70.8942 229.297 77.9742C200.714 85.0543 183.805 105.159 169.297 134.901C162.174 149.505 157.951 166.775 157.301 182.932C157.047 189.276 157.918 195.824 159.659 201.932C160.297 204.174 163.741 211.947 164.687 205.666C165.001 203.575 163.849 200.691 163.738 198.469C163.592 195.553 163.749 192.599 163.951 189.688C164.33 184.245 165.318 178.905 167.077 173.716C169.591 166.302 172.791 158.262 177.689 152.007C189.812 136.524 210.797 135.641 227.459 127.121C226.013 129.734 220.439 133.963 222.37 136.907C223.704 138.941 228.753 138.324 231.164 138.259C237.506 138.089 243.877 137.005 250.142 136.126C260.015 134.741 269.266 131.933 278.558 128.524C286.165 125.732 294.853 123.146 300.57 117.224C309.795 126.609 321.67 135.434 333.528 141.399C344.168 146.753 361.327 149.428 367.831 160.285C375.53 173.14 371.988 188.93 374.34 202.862C375.234 208.161 377.266 208.042 378.378 203.303C380.266 195.253 381.158 186.89 380.557 178.615C379.196 159.933 372.214 110.838 333.979 89.0855Z" fill="#28354B"/>
<mask id="mask7_22_191" style="mask-type:luminance" maskUnits="userSpaceOnUse" x="157" y="72" width="224" height="137">
<path fill-rule="evenodd" clip-rule="evenodd" d="M333.979 89.0855C295.745 67.3328 257.881 70.8942 229.297 77.9742C200.714 85.0543 183.805 105.159 169.297 134.901C162.174 149.505 157.951 166.775 157.301 182.932C157.047 189.276 157.918 195.824 159.659 201.932C160.297 204.174 163.741 211.947 164.687 205.666C165.001 203.575 163.849 200.691 163.738 198.469C163.592 195.553 163.749 192.599 163.951 189.688C164.33 184.245 165.318 178.905 167.077 173.716C169.591 166.302 172.791 158.262 177.689 152.007C189.812 136.524 210.797 135.641 227.459 127.121C226.013 129.734 220.439 133.963 222.37 136.907C223.704 138.941 228.753 138.324 231.164 138.259C237.506 138.089 243.877 137.005 250.142 136.126C260.015 134.741 269.266 131.933 278.558 128.524C286.165 125.732 294.853 123.146 300.57 117.224C309.795 126.609 321.67 135.434 333.528 141.399C344.168 146.753 361.327 149.428 367.831 160.285C375.53 173.14 371.988 188.93 374.34 202.862C375.234 208.161 377.266 208.042 378.378 203.303C380.266 195.253 381.158 186.89 380.557 178.615C379.196 159.933 372.214 110.838 333.979 89.0855Z" fill="white"/>
</mask>
<g mask="url(#mask7_22_191)">
<path d="M517.106 24H17.106V544.593H517.106V24Z" fill="#4A312C"/>
</g>
</g>
</g>
<defs>
<filter id="filter0_f_22_191" x="0.693848" y="0.359131" width="520.342" height="520.343" filterUnits="userSpaceOnUse" color-interpolation-filters="sRGB">
<feFlood flood-opacity="0" result="BackgroundImageFix"/>
<feBlend mode="normal" in="SourceGraphic" in2="BackgroundImageFix" result="shape"/>
<feGaussianBlur stdDeviation="25" result="effect1_foregroundBlur_22_191"/>
</filter>
</defs>
</svg>
